<svg xmlns="http://www.w3.org/2000/svg" viewBox="0 0 500 500"><g id="freepik--Charts--inject-106"><path d="M322.24,221a31.32,31.32,0,0,0-7-12.47A53,53,0,0,0,301.88,198a84.7,84.7,0,0,0-18.36-7.71,112.39,112.39,0,0,0-21.6-4,124.83,124.83,0,0,0-22.71,0,112.28,112.28,0,0,0-21.59,4A84.58,84.58,0,0,0,199.25,198a53.14,53.14,0,0,0-13.35,10.6,31.42,31.42,0,0,0-7,12.47,24.46,24.46,0,0,0,0,13.12,31.06,31.06,0,0,0,7,12.46,53.18,53.18,0,0,0,13.36,10.61,84.31,84.31,0,0,0,18.35,7.7A113.12,113.12,0,0,0,239.21,269a126.66,126.66,0,0,0,22.71,0,113.12,113.12,0,0,0,21.61-4.05,84.31,84.31,0,0,0,18.35-7.7h0a53,53,0,0,0,13.36-10.61,31.21,31.21,0,0,0,7-12.46A24.65,24.65,0,0,0,322.24,221Z" style="fill:#37474f"></path><polygon points="178 221.02 323.13 221.02 323.13 228.42 178 228.01 178 221.02" style="fill:#37474f"></polygon><path d="M239.21,179.66,250.55,221,217.62,183.7A112.28,112.28,0,0,1,239.21,179.66Z" style="fill:#455a64"></path><path d="M261.92,179.66,250.58,221h0l-11.34-41.36A124.83,124.83,0,0,1,261.92,179.66Z" style="fill:#455a64"></path><path d="M283.52,183.7,250.58,221l11.34-41.36A112.39,112.39,0,0,1,283.52,183.7Z" style="fill:#455a64"></path><path d="M315.23,202a31.43,31.43,0,0,1,7,12.48L250.59,221h0Z" style="fill:#455a64"></path><path d="M322.24,214.49a24.62,24.62,0,0,1,0,13.11L250.59,221Z" style="fill:#455a64"></path><path d="M322.24,227.6a31.31,31.31,0,0,1-7,12.47l-64.65-19Z" style="fill:#455a64"></path><path d="M315.24,240.07a53,53,0,0,1-13.36,10.6L250.57,221h0Z" style="fill:#455a64"></path><path d="M250.58,221.05l32.95,37.33a112.35,112.35,0,0,1-21.61,4l-11.35-41.36Z" style="fill:#455a64"></path><path d="M250.57,221.06l11.35,41.36a124.83,124.83,0,0,1-22.71,0Z" style="fill:#455a64"></path><path d="M250.55,221.05h0l-11.36,41.36a112.35,112.35,0,0,1-21.61-4Z" style="fill:#455a64"></path><path d="M250.55,221.05l-33,37.33a84.83,84.83,0,0,1-18.35-7.71Z" style="fill:#455a64"></path><path d="M250.54,221l-64.65,19a31.16,31.16,0,0,1-7-12.47Z" style="fill:#455a64"></path><path d="M250.54,221,178.9,227.6a24.42,24.42,0,0,1,0-13.11Z" style="fill:#455a64"></path><path d="M250.54,221h0l-71.64-6.55a31.52,31.52,0,0,1,7-12.48Z" style="fill:#455a64"></path><path d="M199.25,191.42,250.54,221,185.9,202A53.12,53.12,0,0,1,199.25,191.42Z" style="fill:#455a64"></path><path d="M301.88,191.42,250.58,221h0l32.94-37.32A84.23,84.23,0,0,1,301.88,191.42Z" style="fill:#455a64"></path><path d="M301.88,191.42A52.94,52.94,0,0,1,315.23,202l-64.64,19Z" style="fill:#455a64"></path><path d="M250.55,221h0l-51.32,29.63a53.16,53.16,0,0,1-13.36-10.6l64.65-19Z" style="fill:#455a64"></path><path d="M217.62,183.7,250.55,221h0l-51.3-29.62A84.11,84.11,0,0,1,217.62,183.7Z" style="fill:#455a64"></path><path d="M250.58,221.05l51.3,29.62a84.83,84.83,0,0,1-18.35,7.71Z" style="fill:#455a64"></path><path d="M206.68,179.28l40.75,23.52-2-33.25C230.44,170.19,217.71,173.39,206.68,179.28Z" style="fill:#234694"></path><path d="M206.68,179.28l40.75,23.52-2-33.25C230.44,170.19,217.71,173.39,206.68,179.28Z" style="fill:#fff;opacity:0.2"></path><polygon points="247.43 202.8 247.43 215.64 206.68 192.11 206.68 179.28 247.43 202.8" style="fill:#234694"></polygon><polygon points="247.43 202.8 247.43 215.64 206.68 192.11 206.68 179.28 247.43 202.8" style="opacity:0.1"></polygon><polygon points="300.26 182.58 253.49 203.68 253.49 216.51 300.26 195.41 300.26 182.58" style="fill:#234694"></polygon><polygon points="300.26 182.58 253.49 203.68 253.49 216.51 300.26 195.41 300.26 182.58" style="opacity:0.30000000000000004"></polygon><path d="M300.26,182.58c-12.59-8.57-29.38-13.09-48.84-13.15l1.25,20.79.82,13.46Z" style="fill:#234694"></path><path d="M300.26,182.58c-12.59-8.57-29.38-13.09-48.84-13.15l1.25,20.79.82,13.46Z" style="opacity:0.1"></path><polygon points="251.41 169.43 251.41 182.26 253.49 216.51 253.49 203.68 251.41 169.43" style="fill:#263238"></polygon><path d="M263,228.39l23.91,23c1.34-.51,2.58-1,4-1.68,16.47-7.42,25.08-18.54,25.07-29.76v-12.7c-1.81-4.83-6.79-4.82-12-9.07l-48.83,22-.49.22Z" style="fill:#234694"></path><path d="M263,228.39l23.91,23c1.34-.51,2.58-1,4-1.68,16.47-7.42,25.08-18.54,25.07-29.76v-12.7c-1.81-4.83-6.79-4.82-12-9.07l-48.83,22-.49.22Z" style="fill:#fff;opacity:0.6000000000000001"></path><path d="M263,215.56l23.91,23c1.34-.51,2.58-1,4-1.69C318.48,224.42,324,201.62,304,185.31l-48.83,22-.49.22Z" style="fill:#234694"></path><path d="M263,215.56l23.91,23c1.34-.51,2.58-1,4-1.69C318.48,224.42,324,201.62,304,185.31l-48.83,22-.49.22Z" style="fill:#fff;opacity:0.8"></path><polygon points="286.87 251.37 286.87 238.53 254.63 207.56 254.63 220.39 286.87 251.37" style="fill:#234694"></polygon><polygon points="286.87 251.37 286.87 238.53 254.63 207.56 254.63 220.39 286.87 251.37" style="fill:#fff;opacity:0.6000000000000001"></polygon><path d="M202.44,194.56c-6.87,4.33-14.5,7.06-17.28,12.32v12.84c0,6.69,3.11,13.47,9.56,19.67,9,8.63,23.25,14.73,40.18,17.16a107.91,107.91,0,0,0,46.82-3.41V240.31l-21.05-7.4L248.31,221Z" style="fill:#234694"></path><path d="M202.44,194.56c-6.87,4.33-14.5,7.06-17.28,12.32v12.84c0,6.69,3.11,13.47,9.56,19.67,9,8.63,23.25,14.73,40.18,17.16a107.91,107.91,0,0,0,46.82-3.41V240.31l-21.05-7.4L248.31,221Z" style="opacity:0.6000000000000001"></path><path d="M202.44,181.73c-19.74,12.42-22.92,30.22-7.72,44.82,9,8.64,23.25,14.73,40.18,17.17a108.07,108.07,0,0,0,46.82-3.41l-21.05-20.23-12.36-11.87Z" style="fill:#234694"></path><path d="M202.44,181.73c-19.74,12.42-22.92,30.22-7.72,44.82,9,8.64,23.25,14.73,40.18,17.17a108.07,108.07,0,0,0,46.82-3.41l-21.05-20.23-12.36-11.87Z" style="opacity:0.30000000000000004"></path><path d="M431.49,321.65a31.32,31.32,0,0,0-7-12.47,53,53,0,0,0-13.35-10.6,84.7,84.7,0,0,0-18.36-7.71,112.39,112.39,0,0,0-21.6-4,124.83,124.83,0,0,0-22.71,0,112.43,112.43,0,0,0-21.59,4,84.7,84.7,0,0,0-18.36,7.71,53,53,0,0,0-13.36,10.6,31.42,31.42,0,0,0-7,12.47,24.46,24.46,0,0,0,0,13.12,31.06,31.06,0,0,0,7,12.46,53.18,53.18,0,0,0,13.36,10.61,84.73,84.73,0,0,0,18.35,7.7,113.27,113.27,0,0,0,21.61,4,126.66,126.66,0,0,0,22.71,0,113.12,113.12,0,0,0,21.61-4,83.85,83.85,0,0,0,18.35-7.71h0a53,53,0,0,0,13.37-10.6,31.3,31.3,0,0,0,7-12.46A24.55,24.55,0,0,0,431.49,321.65Z" style="fill:#37474f"></path><polygon points="287.25 321.64 432.38 321.64 432.38 329.04 287.25 328.63 287.25 321.64" style="fill:#37474f"></polygon><path d="M348.46,280.28l11.35,41.36-32.94-37.32A112.43,112.43,0,0,1,348.46,280.28Z" style="fill:#455a64"></path><path d="M371.17,280.28l-11.34,41.36h0l-11.35-41.36A124.83,124.83,0,0,1,371.17,280.28Z" style="fill:#455a64"></path><path d="M392.77,284.32l-32.94,37.32,11.34-41.36A112.39,112.39,0,0,1,392.77,284.32Z" style="fill:#455a64"></path><path d="M424.48,302.63a31.36,31.36,0,0,1,7,12.48l-71.64,6.55h0Z" style="fill:#455a64"></path><path d="M431.49,315.11a24.52,24.52,0,0,1,0,13.11l-71.64-6.56Z" style="fill:#455a64"></path><path d="M431.49,328.22a31.4,31.4,0,0,1-7,12.47l-64.65-19Z" style="fill:#455a64"></path><path d="M424.5,340.69a53.44,53.44,0,0,1-13.37,10.6l-51.31-29.63h0Z" style="fill:#455a64"></path><path d="M359.83,321.67,392.78,359a113.11,113.11,0,0,1-21.61,4l-11.35-41.36Z" style="fill:#455a64"></path><path d="M359.82,321.68,371.17,363a125.74,125.74,0,0,1-22.71,0Z" style="fill:#455a64"></path><path d="M359.81,321.67h0L348.46,363a113.26,113.26,0,0,1-21.61-4Z" style="fill:#455a64"></path><path d="M359.81,321.67l-33,37.33a85.25,85.25,0,0,1-18.35-7.71Z" style="fill:#455a64"></path><path d="M359.79,321.66l-64.65,19a31.16,31.16,0,0,1-7-12.47Z" style="fill:#455a64"></path><path d="M359.79,321.66l-71.64,6.56a24.42,24.42,0,0,1,0-13.11Z" style="fill:#455a64"></path><path d="M359.79,321.65h0l-71.64-6.55a31.45,31.45,0,0,1,7-12.48Z" style="fill:#455a64"></path><path d="M308.51,292l51.28,29.61-64.64-19A53,53,0,0,1,308.51,292Z" style="fill:#455a64"></path><path d="M411.13,292l-51.3,29.61h0l32.94-37.32A84.23,84.23,0,0,1,411.13,292Z" style="fill:#455a64"></path><path d="M411.13,292a52.94,52.94,0,0,1,13.35,10.59l-64.63,19Z" style="fill:#455a64"></path><path d="M359.81,321.65h0L308.5,351.29a53.38,53.38,0,0,1-13.36-10.6l64.65-19Z" style="fill:#455a64"></path><path d="M326.87,284.32l32.94,37.32h0L308.51,292A84.23,84.23,0,0,1,326.87,284.32Z" style="fill:#455a64"></path><path d="M359.83,321.67l51.3,29.62A84.83,84.83,0,0,1,392.78,359Z" style="fill:#455a64"></path><path d="M295.89,305.41v20.78a22,22,0,0,1-.8-5.83V305.41Z" style="fill:#234694"></path><path d="M295.89,305.41v20.78a22,22,0,0,1-.8-5.83V305.41Z" style="opacity:0.30000000000000004"></path><path d="M359.79,305.43l-63.9,5.84a21.88,21.88,0,0,1,0-11.69Z" style="fill:#234694"></path><path d="M359.79,305.41h0l-63.9-5.85a28.07,28.07,0,0,1,6.25-11.13Z" style="fill:#234694"></path><path d="M314.05,279l45.74,26.41-57.65-17A47.41,47.41,0,0,1,314.05,279Z" style="fill:#234694"></path><path d="M330.43,272.12l29.38,33.28h0L314.05,279A75.23,75.23,0,0,1,330.43,272.12Z" style="fill:#234694"></path><path d="M349.69,268.52l10.12,36.88-29.38-33.28A99.82,99.82,0,0,1,349.69,268.52Z" style="fill:#234694"></path><path d="M370,268.52,359.83,305.4h0l-10.12-36.88A110.57,110.57,0,0,1,370,268.52Z" style="fill:#234694"></path><path d="M389.21,272.12,359.83,305.4,370,268.52A99.82,99.82,0,0,1,389.21,272.12Z" style="fill:#234694"></path><g style="opacity:0.2"><path d="M359.79,305.43l-63.9,5.84a21.88,21.88,0,0,1,0-11.69Z" style="fill:#fff"></path><path d="M359.79,305.41h0l-63.9-5.85a28.07,28.07,0,0,1,6.25-11.13Z" style="fill:#fff"></path><path d="M314.05,279l45.74,26.41-57.65-17A47.41,47.41,0,0,1,314.05,279Z" style="fill:#fff"></path><path d="M330.43,272.12l29.38,33.28h0L314.05,279A75.23,75.23,0,0,1,330.43,272.12Z" style="fill:#fff"></path><path d="M349.69,268.52l10.12,36.88-29.38-33.28A99.82,99.82,0,0,1,349.69,268.52Z" style="fill:#fff"></path><path d="M370,268.52,359.83,305.4h0l-10.12-36.88A110.57,110.57,0,0,1,370,268.52Z" style="fill:#fff"></path><path d="M389.21,272.12,359.83,305.4,370,268.52A99.82,99.82,0,0,1,389.21,272.12Z" style="fill:#fff"></path></g><path d="M414,315.39l-9.59,9-7.29,6.89-6.95,6.54-.93.87v14.93a75.42,75.42,0,0,0,16.38-6.87,47.69,47.69,0,0,0,11.92-9.47,27.77,27.77,0,0,0,6.23-11.11,22,22,0,0,0,.81-5.83V305.42Z" style="fill:#234694"></path><path d="M414,315.39l-9.59,9-7.29,6.89-6.95,6.54-.93.87v14.93a75.42,75.42,0,0,0,16.38-6.87,47.69,47.69,0,0,0,11.92-9.47,27.77,27.77,0,0,0,6.23-11.11,22,22,0,0,0,.81-5.83V305.42Z" style="opacity:0.30000000000000004"></path><path d="M417.5,288.45a28.2,28.2,0,0,1,6.25,11.13l-63.91,5.85h0Z" style="fill:#234694"></path><path d="M424.55,305.44a22.11,22.11,0,0,1-.81,5.84l-19.36-1.78-44.54-4.08,54.13-5,9.77-.89A22.16,22.16,0,0,1,424.55,305.44Z" style="fill:#234694"></path><path d="M423.74,311.28a27.84,27.84,0,0,1-6.23,11.11l-20.42-6-37.25-11,44.54,4.08Z" style="fill:#234694"></path><path d="M417.51,322.39a47.69,47.69,0,0,1-11.92,9.47l-15.45-8.94-30.29-17.48v0l37.25,11Z" style="fill:#234694"></path><path d="M405.59,279l-45.76,26.42h0l29.38-33.28A75.65,75.65,0,0,1,405.59,279Z" style="fill:#234694"></path><path d="M405.59,279a47.59,47.59,0,0,1,11.91,9.45l-57.66,17Z" style="fill:#234694"></path><path d="M405.59,331.86a75.4,75.4,0,0,1-16.38,6.86l-29.36-33.28,30.29,17.48Z" style="fill:#234694"></path><g style="opacity:0.2"><path d="M417.5,288.45a28.2,28.2,0,0,1,6.25,11.13l-63.91,5.85h0Z" style="fill:#fff"></path><path d="M424.55,305.44a22.11,22.11,0,0,1-.81,5.84l-19.36-1.78-44.54-4.08,54.13-5,9.77-.89A22.16,22.16,0,0,1,424.55,305.44Z" style="fill:#fff"></path><path d="M423.74,311.28a27.84,27.84,0,0,1-6.23,11.11l-20.42-6-37.25-11,44.54,4.08Z" style="fill:#fff"></path><path d="M417.51,322.39a47.69,47.69,0,0,1-11.92,9.47l-15.45-8.94-30.29-17.48v0l37.25,11Z" style="fill:#fff"></path><path d="M405.59,279l-45.76,26.42h0l29.38-33.28A75.65,75.65,0,0,1,405.59,279Z" style="fill:#fff"></path><path d="M405.59,279a47.59,47.59,0,0,1,11.91,9.45l-57.66,17Z" style="fill:#fff"></path><path d="M405.59,331.86a75.4,75.4,0,0,1-16.38,6.86l-29.36-33.28,30.29,17.48Z" style="fill:#fff"></path></g><polygon points="389.22 338.73 389.22 353.66 359.81 320.34 359.81 305.4 389.22 338.73" style="fill:#263238"></polygon><polygon points="359.81 320.34 295.89 326.21 295.89 311.27 359.81 305.4 359.81 320.34" style="fill:#234694"></polygon><polygon points="359.81 320.34 295.89 326.21 295.89 311.27 359.81 305.4 359.81 320.34" style="opacity:0.1"></polygon><path d="M213,321.65a31.32,31.32,0,0,0-7-12.47,53.14,53.14,0,0,0-13.35-10.6,84.58,84.58,0,0,0-18.37-7.71,112.28,112.28,0,0,0-21.59-4,124.83,124.83,0,0,0-22.71,0,112.53,112.53,0,0,0-21.6,4A84.7,84.7,0,0,0,90,298.58a53,53,0,0,0-13.35,10.6,31.32,31.32,0,0,0-7,12.47,24.65,24.65,0,0,0,0,13.12,31.21,31.21,0,0,0,7,12.46A53,53,0,0,0,90,357.84a84.31,84.31,0,0,0,18.35,7.7,113.12,113.12,0,0,0,21.61,4,126.66,126.66,0,0,0,22.71,0,113.12,113.12,0,0,0,21.61-4,83.85,83.85,0,0,0,18.35-7.71h0A52.93,52.93,0,0,0,206,347.23a31.21,31.21,0,0,0,7-12.46A24.65,24.65,0,0,0,213,321.65Z" style="fill:#37474f"></path><polygon points="68.75 321.64 213.88 321.64 213.88 329.04 68.75 328.63 68.75 321.64" style="fill:#37474f"></polygon><path d="M130,280.28l11.34,41.36-32.94-37.32A112.53,112.53,0,0,1,130,280.28Z" style="fill:#455a64"></path><path d="M152.67,280.28l-11.34,41.36h0L130,280.28A124.83,124.83,0,0,1,152.67,280.28Z" style="fill:#455a64"></path><path d="M174.26,284.32l-32.93,37.32,11.34-41.36A112.28,112.28,0,0,1,174.26,284.32Z" style="fill:#455a64"></path><path d="M206,302.63a31.36,31.36,0,0,1,7,12.48l-71.65,6.55h0Z" style="fill:#455a64"></path><path d="M213,315.11a24.62,24.62,0,0,1,0,13.11l-71.65-6.56Z" style="fill:#455a64"></path><path d="M213,328.22a31.31,31.31,0,0,1-7,12.47l-64.65-19Z" style="fill:#455a64"></path><path d="M206,340.69a53.38,53.38,0,0,1-13.36,10.6l-51.32-29.63h0Z" style="fill:#455a64"></path><path d="M141.33,321.67,174.28,359a113.11,113.11,0,0,1-21.61,4l-11.36-41.36Z" style="fill:#455a64"></path><path d="M141.31,321.68,152.67,363A125.74,125.74,0,0,1,130,363Z" style="fill:#455a64"></path><path d="M141.3,321.67h0L130,363a113.11,113.11,0,0,1-21.61-4Z" style="fill:#455a64"></path><path d="M141.3,321.67l-33,37.33A84.83,84.83,0,0,1,90,351.29Z" style="fill:#455a64"></path><path d="M141.29,321.66l-64.65,19a31.31,31.31,0,0,1-7-12.47Z" style="fill:#455a64"></path><path d="M141.29,321.66l-71.65,6.56a24.62,24.62,0,0,1,0-13.11Z" style="fill:#455a64"></path><path d="M141.29,321.65h0l-71.65-6.55a31.36,31.36,0,0,1,7-12.48Z" style="fill:#455a64"></path><path d="M90,292l51.29,29.61-64.64-19A52.94,52.94,0,0,1,90,292Z" style="fill:#455a64"></path><path d="M192.63,292l-51.3,29.61h0l32.93-37.32A84.11,84.11,0,0,1,192.63,292Z" style="fill:#455a64"></path><path d="M192.63,292A53.12,53.12,0,0,1,206,302.63l-64.64,19Z" style="fill:#455a64"></path><path d="M141.3,321.65h0L90,351.29a53.2,53.2,0,0,1-13.36-10.6l64.65-19Z" style="fill:#455a64"></path><path d="M108.36,284.32l32.94,37.32h0L90,292A84.23,84.23,0,0,1,108.36,284.32Z" style="fill:#455a64"></path><path d="M141.33,321.67l51.3,29.62A84.83,84.83,0,0,1,174.28,359Z" style="fill:#455a64"></path><path d="M160.61,296l8.27-9.38c0-11-13.44-11.27-19.38-11.8s-16.13-3.94-16.13,8.58l2.84,10.36A79,79,0,0,1,160.61,296Z" style="fill:#234694"></path><path d="M160.61,296l8.27-9.38c0-11-13.44-11.27-19.38-11.8s-16.13-3.94-16.13,8.58l2.84,10.36A79,79,0,0,1,160.61,296Z" style="fill:#fff;opacity:0.6000000000000001"></path><path d="M160.61,281.27l8.27-9.37a109.08,109.08,0,0,0-35.51-3.22L136.21,279A79,79,0,0,1,160.61,281.27Z" style="fill:#234694"></path><path d="M160.61,281.27l8.27-9.37a109.08,109.08,0,0,0-35.51-3.22L136.21,279A79,79,0,0,1,160.61,281.27Z" style="fill:#fff;opacity:0.8"></path><polygon points="136.21 279.04 136.21 293.78 133.37 283.42 133.37 268.68 136.21 279.04" style="fill:#234694"></polygon><polygon points="168.88 271.9 160.61 281.27 160.61 296.02 168.88 286.64 168.88 271.9" style="fill:#234694"></polygon><g style="opacity:0.6000000000000001"><polygon points="136.21 279.04 136.21 293.78 133.37 283.42 133.37 268.68 136.21 279.04" style="fill:#fff"></polygon><polygon points="168.88 271.9 160.61 281.27 160.61 296.02 168.88 286.64 168.88 271.9" style="fill:#fff"></polygon></g><path d="M164.65,282.46V297.2a54.21,54.21,0,0,1,9.94,4.35,35.2,35.2,0,0,1,7.53,5.74l16.22-4.77a49.06,49.06,0,0,0-10.91-8.38C183,291.6,178.26,281.3,164.65,282.46Z" style="fill:#234694"></path><path d="M164.65,282.46V297.2a54.21,54.21,0,0,1,9.94,4.35,35.2,35.2,0,0,1,7.53,5.74l16.22-4.77a49.06,49.06,0,0,0-10.91-8.38C183,291.6,178.26,281.3,164.65,282.46Z" style="opacity:0.6000000000000001"></path><path d="M172.92,273.1l-8.27,9.36a52.88,52.88,0,0,1,9.94,4.35,35.2,35.2,0,0,1,7.53,5.74l16.22-4.77a48.47,48.47,0,0,0-10.91-8.38A73.94,73.94,0,0,0,172.92,273.1Z" style="fill:#234694"></path><path d="M172.92,273.1l-8.27,9.36a52.88,52.88,0,0,1,9.94,4.35,35.2,35.2,0,0,1,7.53,5.74l16.22-4.77a48.47,48.47,0,0,0-10.91-8.38A73.94,73.94,0,0,0,172.92,273.1Z" style="opacity:0.30000000000000004"></path><polygon points="182.12 292.55 198.34 287.77 198.34 302.52 182.12 307.29 182.12 292.55" style="fill:#234694"></polygon><polygon points="182.12 292.55 198.34 287.77 198.34 302.52 182.12 307.29 182.12 292.55" style="opacity:0.6000000000000001"></polygon><path d="M206.48,305.63H201c-.2-.26-.37-.52-.57-.78l-16.24-10v14.75c3.46,4.45,4.77,9.31,3.87,14.08L206,325.35a22.28,22.28,0,0,0,.45-4.52h0Z" style="fill:#234694"></path><path d="M206.48,305.63H201c-.2-.26-.37-.52-.57-.78l-16.24-10v14.75c3.46,4.45,4.77,9.31,3.87,14.08L206,325.35a22.28,22.28,0,0,0,.45-4.52h0Z" style="opacity:0.6000000000000001"></path><path d="M188.05,309,206,310.61c1.46-6.93-.39-14.06-5.58-20.5l-16.24,4.77C187.64,299.33,189,304.2,188.05,309Z" style="fill:#234694"></path><path d="M188.05,309,206,310.61c1.46-6.93-.39-14.06-5.58-20.5l-16.24,4.77C187.64,299.33,189,304.2,188.05,309Z" style="opacity:0.30000000000000004"></path><polygon points="206 310.61 206 325.36 188.05 323.71 188.05 308.97 206 310.61" style="fill:#234694"></polygon><polygon points="206 310.61 206 325.36 188.05 323.71 188.05 308.97 206 310.61" style="opacity:0.6000000000000001"></polygon><path d="M131.73,294.2V279.45c-10-4.61-28.62.07-34.86,13.8l12.84,7.42A64.82,64.82,0,0,1,131.73,294.2Z" style="fill:#234694"></path><path d="M131.73,294.2V279.45c-10-4.61-28.62.07-34.86,13.8l12.84,7.42A64.82,64.82,0,0,1,131.73,294.2Z" style="opacity:0.30000000000000004"></path><path d="M131.73,279.45l-2.85-10.39c-12.09,1.36-23.16,4.69-32,9.45l12.84,7.41A64.82,64.82,0,0,1,131.73,279.45Z" style="fill:#234694"></path><path d="M131.73,279.45l-2.85-10.39c-12.09,1.36-23.16,4.69-32,9.45l12.84,7.41A64.82,64.82,0,0,1,131.73,279.45Z" style="opacity:0.1"></path><polygon points="109.71 285.92 109.71 300.67 96.87 293.25 96.87 278.51 109.71 285.92" style="fill:#263238"></polygon><path d="M96.28,287.78l-2.64,7.31c-8.63,5.34-14.08,11.77-16.32,18.5l18,1.64c1.65-4.61,5.41-9,11.23-12.7V287.78Z" style="fill:#234694"></path><path d="M96.28,287.78l-2.64,7.31c-8.63,5.34-14.08,11.77-16.32,18.5l18,1.64c1.65-4.61,5.41-9,11.23-12.7V287.78Z" style="opacity:0.30000000000000004"></path><path d="M106.51,287.78l-12.87-7.43c-8.63,5.33-14.08,11.77-16.32,18.49l18,1.65C96.93,295.88,100.69,291.48,106.51,287.78Z" style="fill:#234694"></path><path d="M106.51,287.78l-12.87-7.43c-8.63,5.33-14.08,11.77-16.32,18.49l18,1.65C96.93,295.88,100.69,291.48,106.51,287.78Z" style="opacity:0.1"></path><polygon points="77.32 298.84 77.32 313.59 95.28 315.23 95.28 300.49 77.32 298.84" style="fill:#263238"></polygon><path d="M94.57,317.82V303.07l-5.34-.48L76.15,306v14.73h0a25.16,25.16,0,0,0,6,15.95l16.24-4.77C95,327.46,93.68,322.59,94.57,317.82Z" style="fill:#234694"></path><path d="M94.57,317.82V303.07l-5.34-.48L76.15,306v14.73h0a25.16,25.16,0,0,0,6,15.95l16.24-4.77C95,327.46,93.68,322.59,94.57,317.82Z" style="opacity:0.30000000000000004"></path><polygon points="82.21 321.94 98.45 317.16 98.45 331.91 82.21 336.68 82.21 321.94" style="fill:#263238"></polygon><path d="M94.58,303.07l-18-1.64c-1.46,6.94.39,14.06,5.58,20.51l16.24-4.78C95,312.71,93.68,307.84,94.58,303.07Z" style="fill:#234694"></path><path d="M94.58,303.07l-18-1.64c-1.46,6.94.39,14.06,5.58,20.51l16.24-4.78C95,312.71,93.68,307.84,94.58,303.07Z" style="opacity:0.1"></path><path d="M113.79,336.66c-7.61-4.39-11.41-10.14-11.41-15.89V306h77.87v14.74c0,5.76-3.8,11.51-11.41,15.9C153.64,345.44,129,345.44,113.79,336.66Z" style="fill:#37474f"></path><ellipse cx="141.32" cy="306.02" rx="38.93" ry="22.48" style="fill:#455a64"></ellipse><path d="M109.71,340.88V339L84.28,324.27V339a48.84,48.84,0,0,0,10.92,8.38,73.94,73.94,0,0,0,14.51,6.3l8.26-9.36A56,56,0,0,1,109.71,340.88Z" style="fill:#234694"></path><path d="M109.71,340.88V339L84.28,324.27V339a48.84,48.84,0,0,0,10.92,8.38,73.94,73.94,0,0,0,14.51,6.3l8.26-9.36A56,56,0,0,1,109.71,340.88Z" style="opacity:0.30000000000000004"></path><path d="M108,325.23a35.17,35.17,0,0,1-7.54-5.73l-16.22,4.77a49.13,49.13,0,0,0,10.92,8.38,74.54,74.54,0,0,0,14.51,6.3l8.26-9.37A52.78,52.78,0,0,1,108,325.23Z" style="fill:#234694"></path><path d="M108,325.23a35.17,35.17,0,0,1-7.54-5.73l-16.22,4.77a49.13,49.13,0,0,0,10.92,8.38,74.54,74.54,0,0,0,14.51,6.3l8.26-9.37A52.78,52.78,0,0,1,108,325.23Z" style="opacity:0.1"></path><polygon points="109.71 353.69 109.71 338.95 117.97 329.58 117.97 344.33 109.71 353.69" style="fill:#263238"></polygon><path d="M113.75,340.14v14.75a109.08,109.08,0,0,0,35.51,3.22V343.37Z" style="fill:#234694"></path><path d="M113.75,340.14v14.75a109.08,109.08,0,0,0,35.51,3.22V343.37Z" style="opacity:0.1"></path><path d="M122,330.77l-8.27,9.37a109.35,109.35,0,0,0,35.51,3.23L146.42,333A79,79,0,0,1,122,330.77Z" style="fill:#234694"></path><path d="M122,330.77l-8.27,9.37a109.35,109.35,0,0,0,35.51,3.23L146.42,333A79,79,0,0,1,122,330.77Z" style="fill:#fff;opacity:0.2"></path><path d="M176.12,339,189,346.44c8.63-5.33,14.08-11.77,16.32-18.5V313.2l-18,13.1C185.7,330.91,181.94,335.31,176.12,339Z" style="fill:#234694"></path><path d="M176.12,339,189,346.44c8.63-5.33,14.08-11.77,16.32-18.5V313.2l-18,13.1C185.7,330.91,181.94,335.31,176.12,339Z" style="opacity:0.1"></path><path d="M176.12,324.26,189,331.7c8.63-5.34,14.08-11.77,16.32-18.5l-18-1.64C185.7,316.17,181.94,320.56,176.12,324.26Z" style="fill:#234694"></path><path d="M176.12,324.26,189,331.7c8.63-5.34,14.08-11.77,16.32-18.5l-18-1.64C185.7,316.17,181.94,320.56,176.12,324.26Z" style="fill:#fff;opacity:0.2"></path><polygon points="188.99 331.7 188.99 346.44 176.12 339.01 176.12 324.26 188.99 331.7" style="fill:#234694"></polygon><polygon points="188.99 331.7 188.99 346.44 176.12 339.01 176.12 324.26 188.99 331.7" style="opacity:0.30000000000000004"></polygon><path d="M153.75,343v4c-.95.15-1.89.28-2.85.39l2.85,10.38c11.65-1.3,22.79-4.45,32-9.43V333.55Z" style="fill:#234694"></path><path d="M153.75,343v4c-.95.15-1.89.28-2.85.39l2.85,10.38c11.65-1.3,22.79-4.45,32-9.43V333.55Z" style="opacity:0.1"></path><path d="M150.9,332.6,153.75,343c11.65-1.3,22.79-4.44,32-9.42l-12.87-7.44A64.1,64.1,0,0,1,150.9,332.6Z" style="fill:#234694"></path><path d="M150.9,332.6,153.75,343c11.65-1.3,22.79-4.44,32-9.42l-12.87-7.44A64.1,64.1,0,0,1,150.9,332.6Z" style="fill:#fff;opacity:0.2"></path><polygon points="153.75 342.97 153.75 357.71 150.9 347.35 150.9 332.6 153.75 342.97" style="fill:#234694"></polygon><polygon points="153.75 342.97 153.75 357.71 150.9 347.35 150.9 332.6 153.75 342.97" style="opacity:0.30000000000000004"></polygon></g></svg>